<svg width="40" height="40" viewBox="0 0 40 40" fill="none" xmlns="http://www.w3.org/2000/svg">
<g clip-path="url(#clip0)">
<path fill-rule="evenodd" clip-rule="evenodd" d="M20 37.5C24.6413 37.5 29.0925 35.6563 32.3744 32.3744C35.6563 29.0925 37.5 24.6413 37.5 20C37.5 15.3587 35.6563 10.9075 32.3744 7.62563C29.0925 4.34374 24.6413 2.5 20 2.5C15.3587 2.5 10.9075 4.34374 7.62563 7.62563C4.34374 10.9075 2.5 15.3587 2.5 20C2.5 24.6413 4.34374 29.0925 7.62563 32.3744C10.9075 35.6563 15.3587 37.5 20 37.5ZM20 40C25.3043 40 30.3914 37.8929 34.1421 34.1421C37.8929 30.3914 40 25.3043 40 20C40 14.6957 37.8929 9.60859 34.1421 5.85786C30.3914 2.10714 25.3043 0 20 0C14.6957 0 9.60859 2.10714 5.85786 5.85786C2.10714 9.60859 0 14.6957 0 20C0 25.3043 2.10714 30.3914 5.85786 34.1421C9.60859 37.8929 14.6957 40 20 40Z" fill="#32BEB9"/>
<path fill-rule="evenodd" clip-rule="evenodd" d="M10.7031 23.9175C10.9902 23.7517 11.3314 23.7068 11.6516 23.7926C11.9718 23.8784 12.2448 24.0879 12.4106 24.375C13.1784 25.7058 14.2832 26.8109 15.6139 27.579C16.9446 28.347 18.4542 28.7509 19.9906 28.75C21.527 28.7509 23.0366 28.347 24.3673 27.579C25.698 26.8109 26.8028 25.7058 27.5706 24.375C27.6521 24.2317 27.7611 24.1059 27.8914 24.0049C28.0217 23.9039 28.1706 23.8297 28.3297 23.7865C28.4888 23.7433 28.6549 23.732 28.8184 23.7532C28.9818 23.7745 29.1395 23.8279 29.2822 23.9103C29.425 23.9927 29.5501 24.1026 29.6502 24.2335C29.7503 24.3645 29.8236 24.5139 29.8657 24.6733C29.9078 24.8327 29.918 24.9988 29.8957 25.1622C29.8734 25.3255 29.819 25.4828 29.7356 25.625C28.7484 27.3359 27.328 28.7565 25.6172 29.744C23.9065 30.7315 21.9659 31.2509 19.9906 31.25C18.0153 31.2509 16.0747 30.7315 14.3639 29.744C12.6532 28.7565 11.2328 27.3359 10.2456 25.625C10.0798 25.3379 10.0349 24.9967 10.1207 24.6765C10.2065 24.3563 10.416 24.0833 10.7031 23.9175ZM16.2406 16.2425V16.25H13.7406C13.7406 14.83 14.8581 13.8825 15.8956 13.365C17.0081 12.8075 18.4581 12.5 19.9906 12.5C21.5231 12.5 22.9731 12.8075 24.0856 13.365C25.1231 13.8825 26.2406 14.83 26.2406 16.25H23.7406V16.2425L23.7331 16.2175C23.7099 16.169 23.6796 16.1244 23.6431 16.085C23.4518 15.881 23.2225 15.7162 22.9681 15.6C22.2656 15.25 21.2156 15 19.9906 15C18.7631 15 17.7106 15.25 17.0156 15.6C16.7603 15.7159 16.5301 15.8807 16.3381 16.085C16.3014 16.1251 16.271 16.1707 16.2481 16.22L16.2406 16.245V16.2425Z" fill="#32BEB9"/>
<path d="M5.77806 13.1075C5.68572 12.7389 5.67862 12.3541 5.75732 11.9823C5.83602 11.6105 5.99843 11.2616 6.23222 10.962C6.46601 10.6624 6.76502 10.42 7.10653 10.2533C7.44803 10.0867 7.82305 10 8.20306 10H15.0031C15.6661 10 16.302 10.2634 16.7708 10.7322C17.2397 11.2011 17.5031 11.837 17.5031 12.5V15C17.5031 16.3261 16.9763 17.5979 16.0386 18.5355C15.1009 19.4732 13.8291 20 12.5031 20H11.4081C10.2931 19.9998 9.21015 19.627 8.33138 18.9407C7.45262 18.2545 6.82844 17.2942 6.55806 16.2125L5.77806 13.1075ZM22.5031 12.5C22.5031 11.837 22.7665 11.2011 23.2353 10.7322C23.7041 10.2634 24.34 10 25.0031 10H31.8031C32.1831 10 32.5581 10.0867 32.8996 10.2533C33.2411 10.42 33.5401 10.6624 33.7739 10.962C34.0077 11.2616 34.1701 11.6105 34.2488 11.9823C34.3275 12.3541 34.3204 12.7389 34.2281 13.1075L33.4506 16.2125C33.1802 17.2942 32.556 18.2545 31.6772 18.9407C30.7985 19.627 29.7155 19.9998 28.6006 20H27.5031C26.177 20 24.9052 19.4732 23.9675 18.5355C23.0298 17.5979 22.5031 16.3261 22.5031 15V12.5Z" fill="#32BEB9"/>
</g>
<defs>
<clipPath id="clip0">
<rect width="40" height="40" fill="white"/>
</clipPath>
</defs>
</svg>
